<?xml version="1.0" encoding="UTF-8"?>
<svg id="Ebene_2" data-name="Ebene 2" xmlns="http://www.w3.org/2000/svg" viewBox="0 0 161.12 161.12">
    <g id="Ebene_1-2">
        <g id="Icon_ad24a3a7-47e4-4e14-b3a0-5b8c0b66fb77-01" style="">
            <path d="M26.85,80.56c0-29.68,24.03-53.71,53.71-53.71s53.71,24.03,53.71,53.71c0,12.59-4.35,24.18-11.6,33.34,5.8,.61,11.29,3.51,14.95,8.54,2.36,3.28,3.66,6.94,3.97,10.68,12.21-14.11,19.53-32.5,19.53-52.64,0-44.4-36.08-80.48-80.56-80.48S0,36.08,0,80.56c0,20.67,7.78,39.52,20.6,53.78,.08-4.12,1.37-8.24,4.04-11.9,3.43-4.73,8.54-7.63,13.96-8.47-7.4-9.08-11.75-20.75-11.75-33.41Z" style="fill: #aab4bc;"/>
            <circle cx="80.56" cy="80.56" r="26.4" style="fill: #ff1001;"/>
            <path d="M30.82,126.94c4.35-6.03,12.74-7.32,18.77-2.98,9.15,6.64,20.22,10.22,31.58,10.22s22.43-3.59,31.58-10.22c6.03-4.35,14.42-3.05,18.77,2.98,4.35,6.03,3.05,14.42-2.98,18.77-13.73,9.99-30.36,15.41-47.38,15.41s-33.57-5.42-47.38-15.41c-6.03-4.35-7.4-12.74-2.98-18.77Z" style="fill: #ff1001; fill-rule: evenodd;"/>
        </g>
    </g>
</svg>