<?xml version="1.0" encoding="UTF-8"?>
<svg id="Ebene_2" data-name="Ebene 2" xmlns="http://www.w3.org/2000/svg" xmlns:xlink="http://www.w3.org/1999/xlink" viewBox="0 0 550.27 161.12">
  <defs>
    <clipPath id="clippath">
      <rect width="550.27" height="161.12" style="fill: none;"/>
    </clipPath>
    <clipPath id="clippath-1">
      <rect width="550.27" height="161.12" style="fill: none;"/>
    </clipPath>
  </defs>
  <g id="Ebene_1-2" data-name="Ebene 1">
    <g id="Share_Long_Dark" data-name="Share Long Dark">
      <g style="clip-path: url(#clippath);">
        <g style="clip-path: url(#clippath-1);">
          <path d="M26.85,80.56c0-29.68,24.03-53.71,53.71-53.71s53.71,24.03,53.71,53.71c0,12.59-4.35,24.18-11.6,33.34,5.8,.61,11.29,3.51,14.95,8.54,2.36,3.28,3.66,6.94,3.97,10.68,12.21-14.11,19.53-32.5,19.53-52.64C161.12,36.08,125.04,0,80.56,0S0,36.08,0,80.56C0,101.23,7.78,120.08,20.6,134.34c.08-4.12,1.37-8.24,4.04-11.9,3.43-4.73,8.54-7.63,13.96-8.47-7.4-9.08-11.75-20.75-11.75-33.41" style="fill: #aab4bc;"/>
          <path d="M80.56,54.16c14.58,0,26.4,11.82,26.4,26.4s-11.82,26.4-26.4,26.4-26.4-11.82-26.4-26.4,11.82-26.4,26.4-26.4" style="fill: #ff1001;"/>
          <path d="M30.82,126.94c4.35-6.03,12.74-7.32,18.77-2.97,9.15,6.64,20.22,10.22,31.58,10.22s22.43-3.58,31.58-10.22c6.03-4.35,14.42-3.05,18.77,2.97,4.35,6.03,3.05,14.42-2.98,18.77-13.73,9.99-30.36,15.41-47.38,15.41s-33.57-5.42-47.38-15.41c-6.03-4.35-7.4-12.74-2.97-18.77" style="fill: #ff1001; fill-rule: evenodd;"/>
          <path d="M245.33,103.05c0,6.63-2.97,11.97-8.91,16.03-5.94,4.06-14.07,6.09-24.4,6.09-5.71,0-10.9-.53-15.54-1.6-4.65-1.07-8.38-2.25-11.2-3.54v-16.91h1.89c1.03,.72,2.22,1.51,3.57,2.37,1.35,.86,3.27,1.78,5.74,2.77,2.13,.88,4.55,1.63,7.26,2.26,2.7,.63,5.6,.94,8.68,.94,4.04,0,7.03-.45,8.97-1.34,1.94-.9,2.91-2.22,2.91-3.97,0-1.56-.57-2.69-1.71-3.4-1.14-.71-3.31-1.38-6.51-2.03-1.52-.34-3.59-.71-6.2-1.11-2.61-.4-4.98-.89-7.11-1.46-5.83-1.52-10.15-3.89-12.97-7.11-2.82-3.22-4.23-7.23-4.23-12.03,0-6.17,2.92-11.31,8.77-15.4,5.85-4.1,13.84-6.14,23.97-6.14,4.8,0,9.4,.49,13.8,1.46,4.4,.97,7.84,2.01,10.31,3.11v16.23h-1.77c-3.05-2.1-6.52-3.8-10.43-5.11-3.9-1.31-7.86-1.97-11.86-1.97-3.32,0-6.11,.46-8.37,1.37-2.27,.91-3.4,2.21-3.4,3.89,0,1.52,.51,2.69,1.54,3.49,1.03,.8,3.45,1.6,7.26,2.4,2.1,.42,4.35,.83,6.77,1.23s4.85,.9,7.29,1.51c5.41,1.41,9.41,3.63,12,6.66,2.59,3.03,3.88,6.81,3.88,11.34" style="fill: #001c3d;"/>
          <path d="M317.94,125.22h-20.63v-31.83c0-2.59-.13-5.17-.4-7.74-.27-2.57-.72-4.46-1.37-5.68-.76-1.41-1.88-2.44-3.34-3.09-1.47-.65-3.51-.97-6.14-.97-1.87,0-3.76,.31-5.69,.91-1.92,.61-4.01,1.58-6.26,2.92v45.48h-20.63V36.32h20.63v31.83c3.65-2.86,7.16-5.05,10.53-6.57,3.37-1.52,7.11-2.29,11.21-2.29,6.92,0,12.33,2.02,16.23,6.06,3.9,4.04,5.85,10.08,5.85,18.11v41.77Z" style="fill: #001c3d;"/>
          <path d="M370.2,116.59c-1.11,.84-2.48,1.85-4.11,3.03-1.64,1.18-3.18,2.11-4.63,2.8-2.02,.91-4.11,1.59-6.29,2.03-2.17,.44-4.55,.66-7.14,.66-6.1,0-11.2-1.89-15.31-5.66-4.11-3.77-6.17-8.59-6.17-14.46,0-4.69,1.05-8.51,3.14-11.49,2.09-2.97,5.07-5.31,8.91-7.03,3.81-1.71,8.53-2.93,14.17-3.66,5.64-.72,11.49-1.26,17.54-1.6v-.34c0-3.54-1.45-5.99-4.34-7.34-2.9-1.35-7.16-2.03-12.8-2.03-3.39,0-7.01,.6-10.86,1.8-3.85,1.2-6.61,2.12-8.29,2.77h-1.89v-15.49c2.17-.57,5.7-1.25,10.6-2.03,4.89-.78,9.8-1.17,14.71-1.17,11.69,0,20.14,1.8,25.34,5.4,5.2,3.6,7.8,9.25,7.8,16.94v43.66h-20.4v-6.8Zm0-9.99v-13.33c-2.78,.23-5.79,.54-9.03,.94-3.24,.4-5.69,.86-7.37,1.4-2.06,.64-3.63,1.59-4.71,2.82-1.08,1.23-1.63,2.86-1.63,4.87,0,1.33,.11,2.41,.34,3.25,.23,.83,.8,1.63,1.71,2.39,.88,.76,1.92,1.32,3.14,1.68,1.22,.36,3.12,.54,5.71,.54,2.06,0,4.14-.42,6.26-1.25,2.11-.84,3.97-1.94,5.57-3.31" style="fill: #001c3d;"/>
          <path d="M487.88,125.15h-28.01l-24.2-32.61h-10.63v32.61h-22.82V36.21h38.47c5.26,0,9.78,.3,13.56,.9,3.78,.6,7.33,1.89,10.63,3.88,3.35,1.99,6,4.57,7.97,7.74,1.97,3.17,2.96,7.14,2.96,11.92,0,6.57-1.52,11.93-4.57,16.07-3.05,4.14-7.4,7.59-13.05,10.33l29.69,38.11Zm-35.78-61.7c0-2.23-.46-4.14-1.37-5.73-.92-1.59-2.49-2.85-4.72-3.76-1.55-.64-3.37-1.03-5.43-1.17-2.07-.14-4.48-.21-7.23-.21h-8.3v23.95h7.05c3.66,0,6.73-.18,9.2-.54,2.47-.36,4.54-1.17,6.21-2.45,1.59-1.23,2.76-2.6,3.49-4.09,.74-1.49,1.11-3.49,1.11-6" style="fill: #ff1001;"/>
          <path d="M550.27,94.35h-47.08c.3,5.03,2.22,8.88,5.74,11.54,3.52,2.67,8.71,4,15.57,4,4.34,0,8.55-.78,12.63-2.34,4.07-1.56,7.29-3.24,9.66-5.03h2.29v16.51c-4.65,1.87-9.03,3.22-13.14,4.06-4.11,.84-8.67,1.26-13.66,1.26-12.88,0-22.74-2.89-29.6-8.69-6.86-5.79-10.28-14.04-10.28-24.74s3.25-18.98,9.74-25.17c6.49-6.19,15.4-9.29,26.71-9.29,10.44,0,18.29,2.64,23.54,7.91,5.26,5.28,7.89,12.87,7.89,22.77v7.2Zm-20.46-12.06c-.11-4.3-1.18-7.54-3.2-9.71-2.02-2.17-5.16-3.26-9.43-3.26-3.96,0-7.22,1.03-9.77,3.09-2.55,2.06-3.98,5.35-4.29,9.89h26.68Z" style="fill: #001c3d;"/>
        </g>
      </g>
    </g>
  </g>
</svg>